<svg width="91" height="91" viewBox="0 0 91 91" fill="none" xmlns="http://www.w3.org/2000/svg">
<g clip-path="url(#clip0)">
<path d="M61.3073 61.3679C62.8034 59.8718 64.0573 58.1986 65.0529 56.3969C65.4563 56.5136 65.8812 56.576 66.3269 56.576C70.4363 56.576 74.0931 51.4273 74.0931 47.3686C74.0931 45.1198 73.2953 43.1973 71.9623 41.881V31.0649C71.9623 30.3178 71.3569 29.7124 70.6092 29.7124C69.8621 29.7124 69.2567 30.3178 69.2567 31.0649V40.2883C68.7902 40.1509 68.2986 40.062 67.787 40.0266V31.1357C67.787 30.3887 67.1815 29.7826 66.4338 29.7826C65.6868 29.7826 65.0807 30.3887 65.0807 31.1357V32.5992C59.7986 32.2514 40.7095 30.2734 30.9272 19.6204C30.8154 19.4996 30.6821 19.399 30.5349 19.3254C29.9809 19.0484 29.3095 19.1831 28.9048 19.6524C25.45 23.6597 23.547 28.7856 23.547 34.0857V40.0259C23.1534 40.0537 22.7715 40.112 22.4043 40.2009V17.9806C22.4043 16.5316 23.0728 15.2083 24.2385 14.3481C25.4035 13.4879 26.8664 13.2401 28.2501 13.667C28.961 13.8864 29.7164 13.4907 29.9392 12.7804C31.1473 8.9411 33.8119 5.86963 37.4416 4.13116C41.0712 2.39269 45.1348 2.24204 48.8832 3.70835L57.99 7.26929C61.3239 8.57244 64.1524 10.824 66.1714 13.7809C68.1896 16.7371 69.2567 20.1918 69.2567 23.7715V26.9159C69.2567 27.6629 69.8621 28.269 70.6092 28.269C71.3569 28.269 71.9623 27.6629 71.9623 26.9159V23.7715C71.9623 19.6447 70.7328 15.6631 68.4062 12.2549C66.0797 8.84737 62.818 6.25148 58.9752 4.74907L49.8684 1.18813C45.4146 -0.55381 40.5859 -0.375381 36.2724 1.69078C32.3317 3.57782 29.3484 6.78815 27.7682 10.8073C25.9569 10.5858 24.1392 11.0586 22.6313 12.1709C20.7672 13.5462 19.698 15.6638 19.698 17.9806V41.5797C18.1699 42.8946 17.2402 44.9421 17.2402 47.3686C17.2402 51.4273 20.897 56.576 25.0064 56.576C25.4521 56.576 25.877 56.5142 26.2804 56.3969C27.276 58.1993 28.5298 59.8732 30.026 61.3686C30.5544 61.897 31.4111 61.897 31.9387 61.3686C32.4678 60.8403 32.4678 59.9835 31.9387 59.4559C28.2723 55.7887 26.2526 50.9142 26.2526 45.7287V42.1462H27.2677C27.9175 46.1834 31.425 49.2778 35.6427 49.2778C40.0666 49.2778 43.7081 45.8738 44.0913 41.5477C45.0758 41.0257 46.2582 41.0257 47.2427 41.5477C47.6259 45.8738 51.2674 49.2771 55.6913 49.2771C59.9083 49.2771 63.4158 46.1834 64.0656 42.1462H65.0807V45.7287C65.0807 50.9128 63.061 55.7873 59.3939 59.4545C55.7281 63.1217 50.8529 65.1413 45.666 65.1413C41.7759 65.1413 38.0227 63.9951 34.813 61.8268C34.1937 61.4082 33.353 61.5714 32.935 62.1899C32.5164 62.8092 32.6788 63.6507 33.2981 64.0687C34.8825 65.1392 36.5834 65.9897 38.3615 66.6118V71.5974L24.7224 79.5045C24.4107 79.6857 24.1837 79.9842 24.092 80.3335L21.7468 89.3049C21.5579 90.0276 21.9912 90.767 22.7139 90.9559C22.8285 90.9857 22.9437 91.0003 23.0569 91.0003C23.6574 91.0003 24.2059 90.5969 24.3649 89.9894L26.5671 81.563L34.4333 77.003L35.9808 84.7296C36.0718 85.183 36.3877 85.5579 36.8181 85.7252C37.2493 85.8925 37.7352 85.8279 38.1081 85.5544L41.6294 82.9703L44.5482 87.2686C44.7995 87.6393 45.2188 87.8615 45.6673 87.8615C46.1158 87.8615 46.5352 87.6393 46.7865 87.2686L49.7046 82.9724L53.2231 85.5544C53.4585 85.7273 53.7397 85.8168 54.0236 85.8168C54.1882 85.8168 54.3541 85.787 54.5124 85.7252C54.9436 85.5579 55.2594 85.1823 55.3497 84.7296L56.8979 77.0023L64.7641 81.563L66.9663 89.9887C67.1253 90.5969 67.6738 91.0003 68.2743 91.0003C68.3882 91.0003 68.5028 90.9857 68.6173 90.9559C69.3407 90.7663 69.7733 90.0276 69.5844 89.3042L67.2392 80.3328C67.1475 79.9842 66.9212 79.6857 66.6088 79.5045L52.9739 71.5995V66.616C56.0752 65.5343 58.9176 63.7597 61.3073 61.3679ZM71.3868 47.3686C71.3868 50.054 68.77 53.8704 66.3269 53.8704C66.2991 53.8704 66.2727 53.8684 66.2457 53.8677C66.6372 52.8769 66.9566 51.8577 67.2003 50.8156C67.503 49.7319 68.307 48.0038 69.179 48.0038C69.926 48.0038 70.5321 47.3977 70.5321 46.6507C70.5321 45.9036 69.926 45.2975 69.179 45.2975C68.6645 45.2975 68.2028 45.4051 67.787 45.5863V42.7461C69.6066 42.978 71.3868 44.4464 71.3868 47.3686ZM25.0064 53.8704C22.5632 53.8704 19.9465 50.054 19.9465 47.3686C19.9465 44.4457 21.7273 42.978 23.547 42.7461V45.587C23.1312 45.4051 22.6688 45.2975 22.1543 45.2975C21.4073 45.2975 20.8012 45.9036 20.8012 46.6507C20.8012 47.3977 21.4073 48.0038 22.1543 48.0038C23.0291 48.0038 23.8352 49.7423 24.1358 50.8254C24.3795 51.864 24.6974 52.8804 25.0876 53.8677C25.0606 53.8684 25.0342 53.8704 25.0064 53.8704ZM35.6427 46.5715C32.4567 46.5715 29.8649 43.9791 29.8649 40.7931C29.8649 38.7061 30.8098 37.498 35.6427 37.498C40.4755 37.498 41.4205 38.7061 41.4205 40.7931C41.4205 43.9791 38.8287 46.5715 35.6427 46.5715ZM55.6913 46.5715C52.5053 46.5715 49.9135 43.9791 49.9135 40.7931C49.9135 38.7061 50.8591 37.498 55.6913 37.498C60.5234 37.498 61.469 38.7061 61.469 40.7931C61.469 43.9791 58.8773 46.5715 55.6913 46.5715ZM64.0531 39.4406C63.1881 34.7959 57.822 34.7918 55.6913 34.7918C53.6744 34.7918 48.7548 34.7945 47.503 38.7366C46.3088 38.3576 45.0251 38.3576 43.831 38.7366C42.5792 34.7938 37.6603 34.7918 35.6427 34.7918C33.5127 34.7918 28.1459 34.7959 27.2808 39.4406H26.2533V34.0857C26.2533 29.9318 27.5849 25.8995 30.0295 22.5795C35.1477 27.5727 42.6424 31.2273 52.3372 33.4525C58.0171 34.7563 62.8444 35.1799 65.0807 35.3145V39.4406H64.0531ZM36.9063 75.5693L38.6878 74.5362C39.2925 76.4879 40.6949 78.0923 42.5126 78.9657L38.2178 82.1177L36.9063 75.5693ZM45.668 84.0999L43.8129 81.3686L45.666 80.0085L47.5217 81.37L45.668 84.0999ZM53.1141 82.1177L48.8207 78.9671C50.639 78.0937 52.0422 76.4899 52.6476 74.5383L54.4263 75.5693L53.1141 82.1177ZM50.2683 72.2937C50.2655 72.3403 50.2648 72.3875 50.2669 72.434C50.2357 74.9445 48.1855 76.9773 45.666 76.9773C43.1305 76.9773 41.0678 74.9132 41.0678 72.3771V67.3651C42.5681 67.6824 44.1073 67.8476 45.666 67.8476C47.2315 67.8476 48.7714 67.6844 50.2683 67.3692V72.2937Z" fill="#3399FF"/>
<path d="M32.5879 56.4112C32.5879 57.1583 33.194 57.7644 33.941 57.7644H40.4353C42.566 57.7644 44.4628 56.7459 45.6673 55.1719C46.8712 56.7459 48.768 57.7644 50.8987 57.7644H57.393C58.1407 57.7644 58.7461 57.1583 58.7461 56.4112C58.7461 52.7802 55.792 49.8267 52.1616 49.8267H48.8943C49.3102 49.2956 49.2748 48.5257 48.786 48.0369C48.2577 47.5085 47.4009 47.5085 46.8726 48.0369C46.5505 48.359 46.1221 48.5361 45.6666 48.5361C45.2112 48.5361 44.7828 48.359 44.4607 48.0369C43.9323 47.5085 43.0756 47.5085 42.5473 48.0369C42.0585 48.5257 42.0231 49.2956 42.439 49.8267H39.1724C35.542 49.8267 32.5879 52.7802 32.5879 56.4112ZM40.4353 55.0581H35.5379C36.0877 53.5848 37.5096 52.5323 39.1724 52.5323H44.0705C43.5199 54.0063 42.0981 55.0581 40.4353 55.0581ZM55.7968 55.0581H50.8987C49.2359 55.0581 47.814 54.0063 47.2635 52.5323H52.1616C53.8244 52.5323 55.2463 53.5848 55.7968 55.0581Z" fill="#3399FF"/>
</g>
<defs>
<clipPath id="clip0">
<rect width="91" height="91" fill="white"/>
</clipPath>
</defs>
</svg>
