<svg width="91" height="80" viewBox="0 0 91 80" fill="none" xmlns="http://www.w3.org/2000/svg">
<path d="M88.8052 0.786133H14.5426C13.8137 0.786133 13.2228 1.37689 13.2228 2.10597C13.2228 2.83504 13.8137 3.4258 14.5426 3.4258H87.4854V66.2042H58.7695L56.6441 62.5217C56.8102 62.2644 56.9691 62.0023 57.1181 61.7336H71.1949C71.924 61.7336 72.5148 61.1429 72.5148 60.4138C72.5148 59.6847 71.924 59.094 71.1949 59.094H58.2398C58.628 57.8234 58.8383 56.4761 58.8383 55.0802C58.8383 47.491 52.664 41.3168 45.0747 41.3168C37.4855 41.3168 31.3113 47.491 31.3113 55.0802C31.3113 56.4761 31.5218 57.8234 31.9098 59.094H9.77552V10.5364H80.3743V59.094H77.3667C76.6376 59.094 76.0468 59.6847 76.0468 60.4138C76.0468 61.1429 76.6376 61.7336 77.3667 61.7336H81.694C82.423 61.7336 83.0138 61.1429 83.0138 60.4138V9.21653C83.0138 8.48746 82.423 7.8967 81.694 7.8967H8.45569C7.72679 7.8967 7.13585 8.48746 7.13585 9.21653V60.4138C7.13585 61.1429 7.72679 61.7336 8.45569 61.7336H33.0315C33.1806 62.0023 33.3397 62.2644 33.5056 62.5217L31.3801 66.2042H2.66408V3.4258H8.37245C9.10135 3.4258 9.69228 2.83504 9.69228 2.10597C9.69228 1.37689 9.10135 0.786133 8.37245 0.786133H1.34425C0.615348 0.786133 0.0244141 1.37689 0.0244141 2.10597V67.524C0.0244141 68.2531 0.615348 68.8438 1.34425 68.8438H29.8565L27.8882 72.2541C27.6737 72.6258 27.6533 73.0787 27.8335 73.468C28.0137 73.8576 28.3722 74.1351 28.7943 74.2122L33.5302 75.0768L36.6472 78.7458C36.8992 79.0425 37.2677 79.2112 37.6529 79.2112C37.6925 79.2112 37.7322 79.2095 37.7722 79.2059C38.1996 79.1671 38.5815 78.9231 38.7962 78.5513L44.4095 68.8271C44.63 68.8377 44.8518 68.844 45.0747 68.844C45.2977 68.844 45.5194 68.8377 45.7401 68.8271L51.3536 78.5513C51.5681 78.923 51.9502 79.1671 52.3775 79.2059C52.4174 79.2096 52.457 79.2112 52.4968 79.2112C52.882 79.2112 53.2505 79.0425 53.5025 78.7458L56.6192 75.0768L61.3552 74.2122C61.7773 74.1351 62.1358 73.8576 62.316 73.468C62.4962 73.0786 62.4758 72.6258 62.2613 72.2541L60.2929 68.8438H88.8052C89.5343 68.8438 90.1251 68.2531 90.1251 67.524V2.10597C90.1251 1.37689 89.5343 0.786133 88.8052 0.786133ZM37.4463 75.6095L35.2369 73.0087C35.0396 72.7764 34.7679 72.6194 34.468 72.5649L31.1105 71.9521L35.2765 64.7342C36.9937 66.4769 39.1694 67.766 41.6074 68.4011L37.4463 75.6095ZM33.951 55.0802C33.951 48.9467 38.941 43.9565 45.0747 43.9565C51.2084 43.9565 56.1987 48.9465 56.1987 55.0802C56.1987 61.214 51.2086 66.2042 45.0747 66.2042C38.9412 66.2042 33.951 61.2141 33.951 55.0802ZM55.6816 72.5647C55.3818 72.6194 55.1101 72.7762 54.9128 73.0085L52.7034 75.6095L48.542 68.4009C50.98 67.7658 53.156 66.4768 54.8732 64.734L59.0389 71.9518L55.6816 72.5647Z" fill="#3399FF"/>
<path d="M62.8517 22.2693C63.5807 22.2693 64.1715 21.6785 64.1715 20.9494V14.9053C64.1715 14.1762 63.5807 13.5854 62.8517 13.5854H27.2983C26.5694 13.5854 25.9785 14.1762 25.9785 14.9053V20.9494C25.9785 21.6785 26.5694 22.2693 27.2983 22.2693H62.8517ZM28.6182 16.2253H61.5318V19.6298H28.6182V16.2253Z" fill="#3399FF"/>
<path d="M45.0749 47.0054C40.6223 47.0054 37 50.6277 37 55.0803C37 59.5329 40.6223 63.1552 45.0749 63.1552C49.5275 63.1552 53.1498 59.5329 53.1498 55.0803C53.1498 50.6277 49.5275 47.0054 45.0749 47.0054ZM45.0749 60.5154C42.0778 60.5154 39.6397 58.0772 39.6397 55.0801C39.6397 52.083 42.078 49.645 45.0749 49.645C48.0718 49.645 50.5102 52.0832 50.5102 55.0803C50.5102 58.0774 48.072 60.5154 45.0749 60.5154Z" fill="#3399FF"/>
<path d="M21.5342 26.6377C21.5342 27.3668 22.1251 27.9575 22.854 27.9575H37.0753C37.8042 27.9575 38.3952 27.3668 38.3952 26.6377C38.3952 25.9086 37.8042 25.3179 37.0753 25.3179H22.854C22.1251 25.3179 21.5342 25.9088 21.5342 26.6377Z" fill="#3399FF"/>
<path d="M72.8063 25.3179H42.7637C42.0348 25.3179 41.4438 25.9086 41.4438 26.6377C41.4438 27.3668 42.0348 27.9575 42.7637 27.9575H72.8063C73.5353 27.9575 74.1261 27.3668 74.1261 26.6377C74.1261 25.9086 73.5353 25.3179 72.8063 25.3179Z" fill="#3399FF"/>
<path d="M74.1261 32.3262C74.1261 31.5971 73.5354 31.0063 72.8063 31.0063H36.542C35.8131 31.0063 35.2222 31.5971 35.2222 32.3262C35.2222 33.0553 35.8131 33.646 36.542 33.646H72.8065C73.5354 33.646 74.1261 33.0551 74.1261 32.3262Z" fill="#3399FF"/>
<path d="M16.0234 32.3262C16.0234 33.0553 16.6144 33.646 17.3433 33.646H30.8534C31.5823 33.646 32.1733 33.0553 32.1733 32.3262C32.1733 31.5971 31.5823 31.0063 30.8534 31.0063H17.3433C16.6144 31.0063 16.0234 31.5971 16.0234 32.3262Z" fill="#3399FF"/>
<path d="M17.3433 39.3345H38.8529C39.5818 39.3345 40.1727 38.7437 40.1727 38.0147C40.1727 37.2856 39.5818 36.6948 38.8529 36.6948H17.3433C16.6144 36.6948 16.0234 37.2856 16.0234 38.0147C16.0234 38.7437 16.6144 39.3345 17.3433 39.3345Z" fill="#3399FF"/>
</svg>
