<svg width="91" height="92" viewBox="0 0 91 92" fill="none" xmlns="http://www.w3.org/2000/svg">
<g clip-path="url(#clip0)">
<path d="M56.1348 16.0815C55.1645 16.0815 54.377 16.869 54.377 17.8394C54.377 18.8097 55.1645 19.5972 56.1348 19.5972C57.1051 19.5972 57.8926 18.8097 57.8926 17.8394C57.8926 16.869 57.1051 16.0815 56.1348 16.0815Z" fill="#3399FF"/>
<path d="M35.9067 19.4987L31.7397 17.4151L29.6544 13.2464C29.3563 12.6502 28.7469 12.2737 28.0803 12.2739C27.4137 12.2739 26.8044 12.6507 26.5065 13.2469L24.4231 17.4153L20.2547 19.4987C19.6583 19.7966 19.2817 20.4062 19.2817 21.0728C19.2817 21.7394 19.6585 22.3485 20.2549 22.6466L24.4233 24.73L26.5067 28.8984C26.8046 29.4946 27.4138 29.8713 28.0804 29.8713H28.0806C28.747 29.8713 29.3565 29.4948 29.6544 28.8989L31.7397 24.7302L35.9067 22.6466C36.5029 22.3485 36.8795 21.7391 36.8795 21.0726C36.8795 20.4062 36.5029 19.7968 35.9067 19.4987ZM29.6414 21.8445C29.3008 22.0146 29.0247 22.2908 28.8546 22.6313L28.0813 24.1769L27.3091 22.6318C27.1388 22.2909 26.8625 22.0148 26.5218 21.8445L24.978 21.0728L26.5218 20.3008C26.8627 20.1305 27.1388 19.8542 27.3091 19.5135L28.0813 17.9684L28.8546 19.514C29.0247 19.8545 29.301 20.1305 29.6414 20.3008L31.1849 21.0726L29.6414 21.8445Z" fill="#3399FF"/>
<path d="M85.3491 16.0762H83.5893V10.7969C83.5893 7.88589 81.221 5.51758 78.31 5.51758H45.5781H12.8463C9.93525 5.51758 7.56694 7.88589 7.56694 10.7969V16.0762H5.80716C2.89614 16.0762 0.527832 18.4446 0.527832 21.3556V74.1489C0.527832 77.0599 2.89614 79.4282 5.80716 79.4282H32.1721C33.2576 79.4282 34.2339 80.0315 34.7192 81.0011C36.3694 84.3062 39.7677 86.4673 43.5614 86.4673H47.5948C51.3641 86.4673 54.7522 84.373 56.436 81.0034C56.9099 80.0577 57.8848 79.4282 58.9841 79.4282H85.3491C88.2601 79.4282 90.6284 77.0599 90.6284 74.1489V21.3556C90.6284 18.4446 88.2601 16.0762 85.3491 16.0762ZM47.3379 70.6293V9.03713H78.31C79.2803 9.03713 80.0698 9.82657 80.0698 10.7969V67.1098C80.0698 68.0801 79.2803 68.8696 78.31 68.8696C76.9854 68.8696 53.5876 68.8696 52.6172 68.8696C50.6378 68.8696 48.8092 69.527 47.3377 70.6343C47.3377 70.6325 47.3379 70.6309 47.3379 70.6293ZM45.5781 72.3891C45.5797 72.3891 45.5815 72.3889 45.5831 72.3889C45.5815 72.3911 45.5797 72.3932 45.5781 72.3953C45.5765 72.393 45.5748 72.3911 45.5732 72.3889C45.575 72.3889 45.5765 72.3891 45.5781 72.3891ZM11.0865 10.7969C11.0865 9.82657 11.8759 9.03713 12.8463 9.03713H43.8183V70.6293C43.8183 70.6311 43.8185 70.6327 43.8185 70.6343C42.347 69.527 40.5184 68.8696 38.539 68.8696C37.2144 68.8696 13.8166 68.8696 12.8463 68.8696C11.8759 68.8696 11.0865 68.0801 11.0865 67.1098V10.7969ZM87.1089 74.1489C87.1089 75.1192 86.3194 75.9087 85.3491 75.9087H58.9841C56.5996 75.9087 54.3814 77.2473 53.2884 79.4282C52.2037 81.5991 50.0219 82.9478 47.5948 82.9478H43.5614C41.1732 82.9478 38.9554 81.6063 37.8671 79.4272C36.7808 77.2568 34.5985 75.9087 32.1721 75.9087H5.80716C4.83682 75.9087 4.04739 75.1192 4.04739 74.1489V21.3556C4.04739 20.3852 4.83682 19.5958 5.80716 19.5958H7.56694V67.1098C7.56694 70.0208 9.93525 72.3891 12.8463 72.3891C13.8485 72.3891 37.2489 72.3891 38.539 72.3891C41.45 72.3891 43.8183 74.7574 43.8183 77.6684C43.8183 78.6404 44.6062 79.4282 45.5781 79.4282C46.55 79.4282 47.3379 78.6404 47.3379 77.6684C47.3379 74.7574 49.7062 72.3891 52.6172 72.3891C53.6194 72.3891 77.0199 72.3891 78.31 72.3891C81.221 72.3891 83.5893 70.0208 83.5893 67.1098V19.5958H85.3491C86.3194 19.5958 87.1089 20.3852 87.1089 21.3556V74.1489Z" fill="#3399FF"/>
<path d="M35.0196 37.1987H20.9414C19.9695 37.1987 19.1816 37.9866 19.1816 38.9585C19.1816 39.9304 19.9695 40.7183 20.9414 40.7183H35.0196C35.9916 40.7183 36.7794 39.9304 36.7794 38.9585C36.7794 37.9866 35.9916 37.1987 35.0196 37.1987Z" fill="#3399FF"/>
<path d="M35.0196 47.7573H20.9414C19.9695 47.7573 19.1816 48.5452 19.1816 49.5171C19.1816 50.489 19.9695 51.2769 20.9414 51.2769H35.0196C35.9916 51.2769 36.7794 50.489 36.7794 49.5171C36.7794 48.5452 35.9916 47.7573 35.0196 47.7573Z" fill="#3399FF"/>
<path d="M35.0196 58.3159H20.9414C19.9695 58.3159 19.1816 59.1038 19.1816 60.0757C19.1816 61.0476 19.9695 61.8355 20.9414 61.8355H35.0196C35.9916 61.8355 36.7794 61.0476 36.7794 60.0757C36.7794 59.1038 35.9916 58.3159 35.0196 58.3159Z" fill="#3399FF"/>
<path d="M71.2708 37.1987H56.1367C55.1648 37.1987 54.377 37.9866 54.377 38.9585C54.377 39.9304 55.1648 40.7183 56.1367 40.7183H71.2708C72.2427 40.7183 73.0306 39.9304 73.0306 38.9585C73.0306 37.9866 72.2427 37.1987 71.2708 37.1987Z" fill="#3399FF"/>
<path d="M71.2708 47.7573H56.1367C55.1648 47.7573 54.377 48.5452 54.377 49.5171C54.377 50.489 55.1648 51.2769 56.1367 51.2769H71.2708C72.2427 51.2769 73.0306 50.489 73.0306 49.5171C73.0306 48.5452 72.2427 47.7573 71.2708 47.7573Z" fill="#3399FF"/>
<path d="M71.2708 26.6401H56.1367C55.1648 26.6401 54.377 27.428 54.377 28.3999C54.377 29.3718 55.1648 30.1597 56.1367 30.1597H71.2708C72.2427 30.1597 73.0306 29.3718 73.0306 28.3999C73.0306 27.428 72.2427 26.6401 71.2708 26.6401Z" fill="#3399FF"/>
<path d="M71.2708 16.0815H63.1758C62.2039 16.0815 61.416 16.8694 61.416 17.8413C61.416 18.8132 62.2039 19.6011 63.1758 19.6011H71.2708C72.2427 19.6011 73.0305 18.8132 73.0305 17.8413C73.0305 16.8694 72.2427 16.0815 71.2708 16.0815Z" fill="#3399FF"/>
<path d="M71.2708 58.3159H56.1367C55.1648 58.3159 54.377 59.1038 54.377 60.0757C54.377 61.0476 55.1648 61.8355 56.1367 61.8355H71.2708C72.2427 61.8355 73.0306 61.0476 73.0306 60.0757C73.0306 59.1038 72.2427 58.3159 71.2708 58.3159Z" fill="#3399FF"/>
</g>
<defs>
<clipPath id="clip0">
<rect width="90.1006" height="90.1006" fill="white" transform="translate(0.527832 0.947266)"/>
</clipPath>
</defs>
</svg>
