<svg width="91" height="91" viewBox="0 0 91 91" fill="none" xmlns="http://www.w3.org/2000/svg">
<g clip-path="url(#clip0)">
<path d="M18.8324 15.2822C18.6235 14.8722 18.2186 14.5984 17.7605 14.557L12.9968 14.1271L9.84855 10.5259C9.54569 10.1794 9.08657 10.0128 8.63167 10.0849C8.17729 10.1569 7.79172 10.4573 7.61082 10.8803L5.72979 15.278L1.33194 17.159C0.908889 17.3399 0.608495 17.7255 0.53652 18.1799C0.464545 18.6343 0.63102 19.0939 0.97752 19.3968L4.57872 22.545L5.00864 27.3087C5.04999 27.767 5.32399 28.1717 5.73384 28.3806C5.92513 28.4781 6.13331 28.5263 6.34114 28.5263C6.57889 28.5263 6.81646 28.463 7.0271 28.337L11.1339 25.8847L15.7973 26.9478C16.2459 27.0502 16.7155 26.9147 17.0411 26.5895C17.3665 26.2643 17.502 25.7944 17.3996 25.3459L16.3365 20.6825L18.7887 16.5757C19.0249 16.1808 19.0413 15.6923 18.8324 15.2822ZM13.6083 20.7544L14.3175 23.8657L11.2062 23.1565C10.871 23.0802 10.5185 23.1358 10.2229 23.3123L7.48288 24.9482L7.19604 21.77C7.16507 21.427 7.00317 21.1094 6.74395 20.8829L4.34133 18.7826L7.27541 17.5275C7.59199 17.392 7.84399 17.14 7.97949 16.8235L9.23456 13.8894L11.3349 16.292C11.5615 16.5512 11.879 16.7131 12.222 16.7441L15.4003 17.0309L13.7644 19.7709C13.5877 20.0665 13.5318 20.4187 13.6083 20.7544Z" fill="#3399FF"/>
<path d="M57.6728 9.44885C57.5317 9.01084 57.1755 8.67613 56.7299 8.56245L50.2316 6.90457L46.6769 1.21732C46.4329 0.827181 46.0058 0.589611 45.5457 0.588379C45.5444 0.588379 45.5434 0.588379 45.5421 0.588379C45.0834 0.588379 44.6565 0.823309 44.4111 1.21116L40.8263 6.87905L34.3192 8.50209C33.8727 8.61349 33.515 8.94626 33.3714 9.38339C33.2279 9.82052 33.3193 10.3008 33.6131 10.6548L37.8963 15.8159L37.4292 22.506C37.3972 22.9652 37.6033 23.4083 37.9746 23.6796C38.3461 23.951 38.8312 24.0128 39.2585 23.8428L45.4902 21.3643L51.7088 23.8758C51.8705 23.9411 52.0405 23.9733 52.2098 23.9733C52.4871 23.9733 52.762 23.8871 52.9936 23.7199C53.3665 23.4505 53.5748 23.0083 53.5453 22.5492L53.1138 15.8565L57.4242 10.7187C57.7198 10.3664 57.8138 9.88686 57.6728 9.44885ZM50.7185 14.5476C50.4973 14.8112 50.3863 15.1502 50.4085 15.4937L50.7375 20.5976L45.9953 18.6822C45.8348 18.6173 45.6644 18.5847 45.4941 18.5847C45.3262 18.5847 45.1583 18.6162 44.9998 18.6794L40.2473 20.5696L40.6037 15.4676C40.6276 15.1241 40.5182 14.7848 40.2985 14.5198L37.0322 10.5841L41.9948 9.34608C42.3288 9.26284 42.6178 9.05396 42.802 8.76307L45.5356 4.44053L48.2464 8.77767C48.4287 9.06962 48.7166 9.27991 49.0503 9.36509L54.006 10.6293L50.7185 14.5476Z" fill="#3399FF"/>
<path d="M90.3099 21.2071L87.2457 17.5347L87.5659 12.7623C87.5967 12.3032 87.3896 11.8606 87.0172 11.5901C86.6449 11.3197 86.1597 11.2593 85.733 11.4307L81.2932 13.21L76.8535 11.4307C76.4264 11.2593 75.9412 11.3195 75.5692 11.5901C75.197 11.8606 74.9897 12.3032 75.0205 12.7623L75.3408 17.5347L72.2765 21.2071C71.9817 21.5603 71.8892 22.0404 72.0313 22.4781C72.1735 22.9155 72.5306 23.2495 72.9765 23.362L77.6142 24.5321L80.1601 28.5815C80.4051 28.9711 80.8329 29.2074 81.293 29.2074C81.7532 29.2074 82.181 28.9711 82.4258 28.5815L84.9719 24.5321L89.6096 23.362C90.0557 23.2495 90.4125 22.9155 90.5547 22.4779C90.6973 22.0404 90.6047 21.5603 90.3099 21.2071ZM83.7974 22.0682C83.4635 22.1525 83.1751 22.3619 82.9917 22.6533L81.293 25.3549L79.5945 22.6533C79.4113 22.3617 79.1227 22.1521 78.7889 22.0682L75.6947 21.2876L77.7392 18.8376C77.9597 18.5733 78.07 18.2342 78.047 17.8905L77.8331 14.7065L80.7952 15.8937C81.1148 16.0218 81.4713 16.0218 81.7907 15.8937L84.7528 14.7065L84.5389 17.8905C84.5159 18.234 84.6262 18.5731 84.8467 18.8376L86.8912 21.2877L83.7974 22.0682Z" fill="#3399FF"/>
<path d="M67.7347 31.3552H63.6858V29.28C63.6858 28.5411 63.0866 27.9419 62.3477 27.9419H27.4853C26.7464 27.9419 26.1472 28.5411 26.1472 29.28V31.3552H22.0985C16.4225 31.3552 11.8047 35.973 11.8047 41.649C11.8047 47.325 16.4225 51.9428 22.0985 51.9428H26.4483C27.7333 59.0324 33.0135 64.7476 39.8639 66.6649V76.0107C39.8639 77.5528 38.6094 78.8074 37.0673 78.8074C36.3284 78.8074 35.7292 79.4066 35.7292 80.1455V82.6792H33.6688C32.9299 82.6792 32.3307 83.2784 32.3307 84.0174V88.7485C32.3307 89.4874 32.9299 90.0866 33.6688 90.0866H56.1482C56.8871 90.0866 57.4863 89.4874 57.4863 88.7485V84.0172C57.4863 83.2782 56.8871 82.679 56.1482 82.679H54.2415V80.1453C54.2415 79.4064 53.6423 78.8072 52.9034 78.8072H52.7654C51.2233 78.8072 49.9688 77.5526 49.9688 76.0105V66.6649C56.8197 64.7478 62.1003 59.0324 63.3851 51.9426H67.7347C73.4107 51.9426 78.0285 47.3248 78.0285 41.6488C78.0285 35.973 73.4107 31.3552 67.7347 31.3552ZM22.0985 49.2669C17.8983 49.2667 14.481 45.8496 14.481 41.6491C14.481 37.4489 17.8981 34.0316 22.0985 34.0316H26.1474V48.5872C26.1474 48.815 26.1528 49.0411 26.1609 49.2669H22.0985ZM28.8235 30.6182H61.0098V33.059H28.8235V30.6182ZM52.9034 85.3553H54.8101V87.4102H54.8099H35.007V85.3553H37.0673H52.9034ZM51.5652 81.3509V82.679H38.4054V81.318C40.7785 80.7197 42.5402 78.567 42.5402 76.0105V67.4732H47.2925V76.0105C47.2923 78.6162 49.1228 80.8024 51.5652 81.3509ZM61.0098 48.5871C61.0098 57.4609 53.7903 64.6802 44.9166 64.6802C36.0429 64.6802 28.8236 57.4609 28.8236 48.5871V35.7352H61.0099V48.5871H61.0098ZM67.7347 49.2667H63.6723C63.6804 49.0409 63.6858 48.8148 63.6858 48.5871V34.0314H67.7347C71.935 34.0314 75.3523 37.4486 75.3523 41.649C75.3523 45.8494 71.9351 49.2667 67.7347 49.2667Z" fill="#3399FF"/>
</g>
<defs>
<clipPath id="clip0">
<rect width="90.1007" height="90.1007" fill="white" transform="translate(0.52002 0.287109)"/>
</clipPath>
</defs>
</svg>
