<svg width="91" height="91" viewBox="0 0 91 91" fill="none" xmlns="http://www.w3.org/2000/svg">
<g clip-path="url(#clip0)">
<path d="M40.7368 14.3809C29.3402 14.3809 20.0684 23.6526 20.0684 35.0493C20.0684 41.799 23.2773 47.9862 28.719 51.8647L29.6748 66.1586C29.7679 67.5501 30.9238 68.6313 32.3185 68.6313H49.1541C50.5489 68.6313 51.7046 67.5501 51.7979 66.1586L52.7536 51.8654C58.196 47.9869 61.4053 41.7993 61.4053 35.0493C61.4052 23.6526 52.1335 14.3809 40.7368 14.3809ZM46.6757 63.3322H34.7967L34.1082 53.0349H47.3644L46.6757 63.3322ZM49.4095 47.7358H43.3864V39.3591L45.0127 40.2981C46.2799 41.0299 47.9002 40.5957 48.632 39.3283C49.3638 38.0609 48.9296 36.4405 47.6623 35.709L46.0352 34.7696L47.6623 33.8303C48.9296 33.0987 49.3638 31.4784 48.632 30.211C47.9002 28.9434 46.2799 28.5094 45.0127 29.2412L43.3864 30.1802V28.3019C43.3864 26.8386 42.2001 25.6523 40.7368 25.6523C39.2736 25.6523 38.0873 26.8386 38.0873 28.3019V30.1809L36.4598 29.2412C35.1926 28.5092 33.5719 28.9438 32.8405 30.211C32.1087 31.4784 32.5428 33.0988 33.8102 33.8303L35.4372 34.7696L33.8102 35.709C32.5428 36.4406 32.1087 38.0609 32.8405 39.3283C33.5721 40.5957 35.1926 41.0299 36.4598 40.2981L38.0873 39.3584V47.7358H32.064C27.8581 44.8649 25.3675 40.1753 25.3675 35.0493C25.3675 26.5745 32.2621 19.68 40.7368 19.68C49.2115 19.68 56.106 26.5745 56.106 35.0493C56.106 40.1753 53.6155 44.8647 49.4095 47.7358Z" fill="#3399FF"/>
<path d="M86.5664 53.1892L79.627 41.0563C79.5085 40.8085 79.4502 40.5313 79.4583 40.2517C79.9679 22.7771 69.8535 8.04211 53.6914 2.71277C33.0033 -4.11076 8.52368 3.38223 3.80182 26.3506C0.385834 42.9648 5.30359 50.1107 10.9915 56.744C13.6075 59.7947 15.4975 61.9992 15.5554 65.4265C15.6867 73.1371 13.3136 81.3221 11.2994 86.8309C10.6682 88.557 11.9478 90.3902 13.7878 90.3902H50.2966C51.5832 90.3902 52.684 89.4658 52.9062 88.1985C53.3462 85.6902 53.864 83.8396 54.3056 82.554C57.2934 84.1254 60.6341 85.4071 63.8215 86.1841C68.642 87.3593 71.9566 87.1697 73.6735 85.6206C76.4235 83.1388 77.5476 79.8447 79.5993 62.9839L81.9968 62.6427C86.4593 62.0082 88.9029 57.1014 86.5664 53.1892ZM81.2507 57.3962L78.4683 57.7922C76.3246 58.0972 74.6457 59.812 74.3853 61.9624C74.1264 64.101 73.884 65.9956 73.6551 67.6795C71.019 67.8501 68.357 67.3001 66.0005 66.0758C64.7015 65.4007 63.1024 65.9071 62.4279 67.2056C61.7533 68.5042 62.259 70.1037 63.5576 70.7783C66.3916 72.2505 69.5486 73.0088 72.7205 73.0088C72.7686 73.0088 72.8164 73.0074 72.8645 73.0071C71.829 79.274 71.0813 80.7473 70.2608 81.5569C69.735 81.6938 67.8672 81.7964 64.3539 80.8502C60.9411 79.9307 57.3453 78.3615 54.4889 76.545C53.2643 75.7662 51.6419 76.1175 50.8484 77.3322C50.6732 77.6009 49.2654 79.8691 48.1183 85.091H17.4961C19.2952 79.4637 20.9724 72.289 20.854 65.3367C20.7638 59.9996 17.8409 56.5909 15.0142 53.2945C10.5165 48.0492 5.86565 42.6252 8.9923 27.4175C13.1475 7.20838 35.0616 2.14876 52.0317 7.74536C65.9145 12.3233 74.6008 25.0221 74.1615 40.0973C74.1269 41.2829 74.3934 42.4651 74.9324 43.516C74.9507 43.5518 74.97 43.5873 74.9899 43.6225L81.9804 55.8448C81.9911 55.8635 82.0021 55.8822 82.0134 55.9007C82.4297 56.5888 81.9406 57.2983 81.2507 57.3962Z" fill="#3399FF"/>
</g>
<defs>
<clipPath id="clip0">
<rect width="90.1006" height="90.1011" fill="white" transform="translate(0.0244141 0.289062)"/>
</clipPath>
</defs>
</svg>
