<svg width="91" height="91" viewBox="0 0 91 91" fill="none" xmlns="http://www.w3.org/2000/svg">
<g clip-path="url(#clip0)">
<path d="M55.0817 34.7798C46.5427 34.7798 39.5957 41.7268 39.5957 50.2658C39.5957 58.8049 46.5427 65.7519 55.0817 65.7519C63.6208 65.7519 70.5678 58.8049 70.5678 50.2658C70.5678 41.7268 63.6208 34.7798 55.0817 34.7798ZM55.0817 62.2323C48.4833 62.2323 43.1153 56.8643 43.1153 50.2658C43.1153 43.6673 48.4833 38.2993 55.0817 38.2993C61.6802 38.2993 67.0482 43.6673 67.0482 50.2658C67.0482 56.8643 61.6802 62.2323 55.0817 62.2323Z" fill="#3399FF"/>
<path d="M55.0816 42.3477C54.1096 42.3477 53.3218 43.1354 53.3218 44.1074C53.3218 45.0794 54.1096 45.8672 55.0816 45.8672C57.5067 45.8672 59.4803 47.8408 59.4803 50.266C59.4803 51.238 60.2681 52.0257 61.2401 52.0257C62.2121 52.0257 62.9999 51.238 62.9999 50.266C62.9999 45.8995 59.448 42.3477 55.0816 42.3477Z" fill="#3399FF"/>
<path d="M11.3762 18.4845C10.9294 17.6218 9.86805 17.2843 9.00466 17.7304C8.14127 18.1772 7.80375 19.2393 8.25057 20.1027L12.9875 29.2535C13.2941 29.8461 13.9142 30.2083 14.5768 30.2042C15.2436 30.1939 15.8479 29.8076 16.1366 29.2061L19.0045 23.2352L22.1191 29.2535C22.4223 29.8378 23.0251 30.2042 23.6823 30.2042H23.7084C24.3759 30.1939 24.9795 29.8076 25.2689 29.2061L29.6635 20.0552C30.0842 19.1795 29.715 18.1277 28.8393 17.707C27.9628 17.2863 26.9118 17.6555 26.4911 18.5319L23.6232 24.5028L20.5078 18.4845C20.2012 17.8919 19.5826 17.5283 18.9192 17.5338C18.2517 17.5441 17.6475 17.9304 17.3588 18.5319L14.4916 24.5028L11.3762 18.4845Z" fill="#3399FF"/>
<path d="M22.6968 8.73096C23.1596 8.73096 23.6128 8.54282 23.9396 8.21597C24.2671 7.88913 24.4546 7.43526 24.4546 6.97314C24.4546 6.51103 24.2671 6.05716 23.9396 5.73032C23.6128 5.40347 23.1596 5.21533 22.6968 5.21533C22.2347 5.21533 21.7815 5.40347 21.4546 5.73032C21.1271 6.05716 20.939 6.51103 20.939 6.97314C20.939 7.43526 21.1271 7.88913 21.4546 8.21597C21.7815 8.54282 22.2347 8.73096 22.6968 8.73096Z" fill="#3399FF"/>
<path d="M90.6284 35.4781V12.2491C90.6284 8.36794 87.4704 5.20996 83.5893 5.20996H30.09C29.1187 5.20996 28.3302 5.99774 28.3302 6.96974C28.3302 7.94174 29.1187 8.72951 30.09 8.72951H83.5893C85.5299 8.72951 87.1089 10.3085 87.1089 12.2491V35.4781C87.1089 37.4187 85.5299 38.9977 83.5893 38.9977H75.1424C75.0915 38.9977 75.042 39.0011 74.9925 39.0052C72.2766 34.2195 67.886 30.5047 62.6225 28.6617L65.2313 23.2305L68.3466 29.2481C68.6491 29.8331 69.2519 30.1988 69.9091 30.1988H69.9359C70.6027 30.1885 71.2069 29.8022 71.4957 29.2007L75.8903 20.0498C76.311 19.1741 75.9418 18.123 75.0661 17.7023C74.1903 17.2809 73.1386 17.6501 72.7179 18.5265L69.8507 24.4974L66.7353 18.4791C66.4287 17.8865 65.8108 17.5229 65.146 17.5291C64.4785 17.5387 63.875 17.925 63.5863 18.5265L60.7184 24.4974L57.6037 18.4791C57.1569 17.6164 56.0949 17.2789 55.2315 17.7257C54.3681 18.1725 54.0312 19.2339 54.4774 20.0973L58.3723 27.621C57.2978 27.4656 56.1993 27.3832 55.0823 27.3832C52.919 27.3832 50.8245 27.6856 48.8392 28.2493L52.7774 20.0498C53.1981 19.1741 52.829 18.123 51.9525 17.7023C51.0767 17.2809 50.025 17.6501 49.605 18.5265L46.7371 24.4974L43.6217 18.4791C43.3152 17.8865 42.6999 17.5229 42.0324 17.5291C41.3657 17.5387 40.7614 17.925 40.4727 18.5265L37.6055 24.4974L34.4902 18.4791C34.0433 17.6164 32.982 17.2789 32.1186 17.7257C31.2552 18.1725 30.9177 19.2339 31.3645 20.0973L36.1015 29.2481C36.408 29.8407 37.0253 30.2029 37.6908 30.1988C38.3575 30.1885 38.9618 29.8022 39.2505 29.2007L42.1184 23.2305L45.233 29.2481C45.2853 29.3492 45.3492 29.4406 45.4186 29.5279C41.1031 31.5475 37.5175 34.8746 35.1755 38.9977H7.56694C5.62637 38.9977 4.04739 37.4187 4.04739 35.4781V12.2491C4.04739 10.3085 5.62637 8.72951 7.56694 8.72951H14.7807C15.7527 8.72951 16.5404 7.94174 16.5404 6.96974C16.5404 5.99774 15.7527 5.20996 14.7807 5.20996H7.56694C3.68581 5.20996 0.527832 8.36794 0.527832 12.2491V35.4781C0.527832 39.3599 3.68581 42.5172 7.56694 42.5172H33.5546C32.6816 44.9369 32.2045 47.5436 32.2045 50.2603C32.2045 62.875 42.4669 73.1374 55.0816 73.1374C59.2267 73.1374 63.1182 72.0292 66.4748 70.0935L80.4416 84.0603C81.6048 85.2234 83.1329 85.805 84.661 85.805C86.1891 85.805 87.7172 85.2234 88.8803 84.0603C91.2072 81.7334 91.2072 77.9479 88.8803 75.621L83.3927 70.1334C82.7053 69.4466 81.591 69.4459 80.9043 70.1334C80.2169 70.8208 80.2169 71.9344 80.9043 72.6218L86.3919 78.1101C87.346 79.0642 87.346 80.6171 86.3919 81.5719C85.4378 82.526 83.8849 82.526 82.9308 81.5719L69.4265 68.067C74.6261 63.8703 77.9587 57.4478 77.9587 50.2603C77.9587 47.5436 77.4816 44.9369 76.6086 42.5172H83.5893C87.4711 42.5172 90.6284 39.3593 90.6284 35.4781ZM55.0816 69.6178C44.4081 69.6178 35.7241 60.9337 35.7241 50.2603C35.7241 39.5868 44.4081 30.9027 55.0816 30.9027C65.7551 30.9027 74.4392 39.5868 74.4392 50.2603C74.4392 60.9337 65.7558 69.6178 55.0816 69.6178Z" fill="#3399FF"/>
<path d="M76.7289 65.9642C76.402 66.291 76.2139 66.7442 76.2139 67.207C76.2139 67.6691 76.402 68.1223 76.7289 68.4499C77.0578 68.7767 77.5096 68.9648 77.9717 68.9648C78.4338 68.9648 78.8877 68.7767 79.2145 68.4499C79.5434 68.1223 79.7295 67.6691 79.7295 67.207C79.7295 66.7442 79.5434 66.291 79.2145 65.9642C78.8877 65.6374 78.4359 65.4492 77.9717 65.4492C77.5096 65.4492 77.0557 65.6374 76.7289 65.9642Z" fill="#3399FF"/>
</g>
<defs>
<clipPath id="clip0">
<rect width="90.1006" height="90.1006" fill="white" transform="translate(0.527832 0.288086)"/>
</clipPath>
</defs>
</svg>
